<svg id="Layer_35" enable-background="new 0 0 64 64" height="512" viewBox="0 0 64 64" width="512" xmlns="http://www.w3.org/2000/svg"><path d="m60 6v30h-56v-30c0-2.21 1.79-4 4-4h48c2.21 0 4 1.79 4 4z" fill="#aab2bd"/><path d="m60 36v20h-56v-20z" fill="#ccd1d9"/><path d="m55 52h-46c-.552 0-1-.448-1-1v-10c0-.552.448-1 1-1h46c.552 0 1 .448 1 1v10c0 .552-.448 1-1 1z" fill="#e6e9ed"/><path d="m60 56v2c0 2.21-1.79 4-4 4h-48c-2.21 0-4-1.79-4-4v-2z" fill="#969faa"/><path d="m9 6h46c.55 0 1 .45 1 1v24c0 .55-.45 1-1 1h-46c-.55 0-1-.45-1-1v-24c0-.55.45-1 1-1z" fill="#69d6f4"/><circle cx="22" cy="15" fill="#f0d0b4" r="5"/><path d="m24 20c2.21 0 4.21.9 5.66 2.34 1.44 1.45 2.34 3.45 2.34 5.66h-20c0-4.42 3.58-8 8-8h2z" fill="#cf9e76"/><path d="m52 19h-4c0-1.38-.56-2.63-1.46-3.54l2.82-2.82c1.63 1.62 2.64 3.88 2.64 6.36z" fill="#ff826e"/><path d="m49.36 12.64-2.82 2.82c-.91-.9-2.16-1.46-3.54-1.46v-4c2.48 0 4.74 1.01 6.36 2.64z" fill="#cf9e76"/><path d="m48 19h4c0 4.97-4.03 9-9 9v-4c2.76 0 5-2.24 5-5z" fill="#fcd770"/><path d="m43 24v4c-4.97 0-9-4.03-9-9s4.03-9 9-9v4c-2.76 0-5 2.24-5 5s2.24 5 5 5z" fill="#ff826e"/><path d="m46.54 15.46c.9.91 1.46 2.16 1.46 3.54 0 2.76-2.24 5-5 5s-5-2.24-5-5 2.24-5 5-5c1.38 0 2.63.56 3.54 1.46z" fill="#e6e9ed"/><path d="m56 1h-48c-2.757 0-5 2.243-5 5v52c0 2.757 2.243 5 5 5h48c2.757 0 5-2.243 5-5v-52c0-2.757-2.243-5-5-5zm-48 2h48c1.654 0 3 1.346 3 3v29h-54v-29c0-1.654 1.346-3 3-3zm51 34v18h-54v-18zm-3 24h-48c-1.654 0-3-1.346-3-3v-1h54v1c0 1.654-1.346 3-3 3z"/><path d="m9 33h46c1.103 0 2-.897 2-2v-24c0-1.103-.897-2-2-2h-46c-1.103 0-2 .897-2 2v24c0 1.103.897 2 2 2zm0-26h46l.001 24h-46.001z"/><path d="m26.195 19.282c1.112-1.09 1.805-2.606 1.805-4.282 0-3.309-2.691-6-6-6s-6 2.691-6 6c0 1.676.693 3.192 1.805 4.282-3.903.984-6.805 4.514-6.805 8.718v1h22v-1c0-4.204-2.902-7.734-6.805-8.718zm-4.195-8.282c2.206 0 4 1.794 4 4s-1.794 4-4 4-4-1.794-4-4 1.794-4 4-4zm-8.929 16c.487-3.388 3.408-6 6.929-6h4c3.521 0 6.442 2.612 6.929 6z"/><path d="m43 9c-5.514 0-10 4.486-10 10s4.486 10 10 10 10-4.486 10-10-4.486-10-10-10zm5.91 9c-.154-.909-.51-1.749-1.025-2.471l1.427-1.427c.86 1.106 1.436 2.44 1.619 3.898zm-5.91 5c-2.206 0-4-1.794-4-4s1.794-4 4-4 4 1.794 4 4-1.794 4-4 4zm3.471-8.885c-.722-.515-1.562-.871-2.471-1.025v-2.021c1.458.183 2.792.759 3.898 1.619zm-11.471 4.885c0-4.072 3.06-7.436 7-7.931v2.021c-2.833.478-5 2.942-5 5.91s2.167 5.431 5 5.91v2.021c-3.94-.495-7-3.859-7-7.931zm9 7.931v-2.021c2.507-.423 4.486-2.403 4.91-4.91h2.021c-.454 3.612-3.319 6.477-6.931 6.931z"/><path d="m9 53h46c1.103 0 2-.897 2-2v-10c0-1.103-.897-2-2-2h-46c-1.103 0-2 .897-2 2v10c0 1.103.897 2 2 2zm0-4h4v2h-4zm40-2h-4v-2h4zm2-2h4.001v2h-4.001zm-12 2v-2h4v2zm-2 0h-4v-2h4zm-6 0h-4v-2h4zm-6 0h-4v-2h4zm24 2v2h-34v-2zm-4-6v-2h4v2zm-2 0h-4v-2h4zm-6 0h-4v-2h4zm-6 0h-4v-2h4zm-6 0h-4v-2h4zm-6 0h-4v-2h4zm0 2v2h-4v-2zm-6 2h-4v-2h4zm38 4v-2h4.001v2zm4-8h-4v-2h4zm-42-2v2h-4v-2z"/><path d="m11 9h2v2h-2z"/><path d="m11 13h2v2h-2z"/><path d="m11 17h2v2h-2z"/></svg>